<svg xmlns="http://www.w3.org/2000/svg" viewBox="0 0 52.4458 69.034" height="14">
  <g fill="#fff" data-name="Group 11015">
    <path d="M.669 69.034a.669.669 0 1 1 0-1.338c9.365 0 15.876-2.347 19.905-7.175 3.349-4.013 4.978-9.805 4.978-17.709v-.135c0-8.23 1.73-14.3 5.289-18.566 4.3-5.151 11.147-7.655 20.932-7.655a.669.669 0 1 1 0 1.338c-9.364 0-15.875 2.346-19.905 7.174-3.349 4.013-4.978 9.806-4.978 17.709v.135c0 8.23-1.73 14.3-5.289 18.566C17.3 66.53 10.455 69.034.669 69.034" data-name="Path 1"/>
    <path d="M18.06 43.483a.669.669 0 0 1-.669-.669v-.135c0-10.22 2.35-18 7.184-23.8 5.946-7.123 14.842-10.586 27.2-10.586a.669.669 0 1 1 0 1.338c-11.934 0-20.494 3.306-26.171 10.106-4.627 5.546-6.875 13.046-6.875 22.94v.135a.669.669 0 0 1-.669.669" data-name="Path 2"/>
    <path d="M17.903 58.961a.669.669 0 0 1-.513-1.1c2.7-3.236 4.014-8.159 4.014-15.051v-.135c0-9.242 2.045-16.184 6.252-21.224 5.137-6.154 13.025-9.145 24.116-9.145a.669.669 0 1 1 0 1.338c-10.67 0-18.223 2.834-23.089 8.664-4 4.79-5.941 11.452-5.941 20.367v.135c0 7.218-1.415 12.422-4.326 15.908a.666.666 0 0 1-.514.241" data-name="Path 3"/>
    <path d="M15.685 29.299a.669.669 0 0 1-.643-.853 32.669 32.669 0 0 1 6.35-12.221C28.175 8.099 38.113 4.149 51.774 4.149a.669.669 0 1 1 0 1.338c-13.24 0-22.842 3.793-29.355 11.6a31.369 31.369 0 0 0-6.09 11.733.67.67 0 0 1-.643.485" data-name="Path 4"/>
    <path d="M18.72 14.664a.669.669 0 0 1-.513-1.1C25.83 4.438 36.806 0 51.773 0a.669.669 0 0 1 0 1.338c-14.543 0-25.189 4.28-32.543 13.085a.666.666 0 0 1-.514.241" data-name="Path 5"/>
  </g>
</svg>
